<svg id="visual" viewBox="0 0 1440 400" width="1440" height="400" xmlns="http://www.w3.org/2000/svg" xmlns:xlink="http://www.w3.org/1999/xlink" version="1.1"><rect width="1440" height="400" fill="#202731"></rect><g><g transform="translate(688 186)"><path d="M76.5 -21.2C87.2 7.9 75.6 48 49.9 65.9C24.3 83.9 -15.3 79.8 -40.3 60.5C-65.2 41.2 -75.5 6.7 -66.3 -20.4C-57.2 -47.5 -28.6 -67.2 2.2 -67.9C32.9 -68.6 65.8 -50.3 76.5 -21.2Z" stroke="#2DAC8B" fill="none" stroke-width="20"></path></g><g transform="translate(1111 76)"><path d="M56.9 -18.4C64.7 5.6 55.8 35.1 37.3 47.7C18.7 60.3 -9.4 56 -27.7 41.8C-46.1 27.6 -54.6 3.6 -48.3 -18.3C-42 -40.1 -21 -59.7 1.8 -60.3C24.6 -60.9 49.1 -42.4 56.9 -18.4Z" stroke="#2DAC8B" fill="none" stroke-width="20"></path></g><g transform="translate(256 232)"><path d="M36.9 -13C42.4 4.9 37.7 25.2 23.8 36C9.9 46.9 -13.2 48.4 -27.5 38C-41.8 27.5 -47.3 5.2 -41.2 -13.5C-35.2 -32.2 -17.6 -47.3 -1 -47C15.7 -46.7 31.4 -31 36.9 -13Z" stroke="#2DAC8B" fill="none" stroke-width="20"></path></g><g transform="translate(58 26)"><path d="M61.3 -19.5C70.1 7.1 61.4 39.8 39.2 56.5C17 73.3 -18.7 74.1 -43.6 56.8C-68.5 39.5 -82.5 4 -73.5 -22.9C-64.4 -49.9 -32.2 -68.4 -3 -67.4C26.3 -66.5 52.5 -46 61.3 -19.5Z" stroke="#2DAC8B" fill="none" stroke-width="20"></path></g><g transform="translate(1335 44)"><path d="M56 -18.4C65 9.5 59.5 41.9 38.7 58.2C17.9 74.5 -18.2 74.6 -41.2 57.7C-64.2 40.7 -74.2 6.7 -65.1 -21.2C-56.1 -49.2 -28 -71 -2.3 -70.3C23.5 -69.5 47 -46.2 56 -18.4Z" stroke="#2DAC8B" fill="none" stroke-width="20"></path></g><g transform="translate(1379 381)"><path d="M58.4 -21.2C65.1 1.7 52.7 28.6 32 43.4C11.4 58.3 -17.5 61.1 -36.5 47.9C-55.5 34.7 -64.5 5.4 -56.7 -18.9C-49 -43.2 -24.5 -62.4 0.7 -62.7C25.8 -62.9 51.7 -44 58.4 -21.2Z" stroke="#2DAC8B" fill="none" stroke-width="20"></path></g><g transform="translate(386 46)"><path d="M65.1 -20.8C73.9 6.1 63.5 39.7 41.5 55.3C19.4 70.8 -14.3 68.5 -36.7 51.9C-59.1 35.3 -70.3 4.4 -62.3 -21.3C-54.3 -47.1 -27.1 -67.7 0.5 -67.8C28.1 -68 56.2 -47.7 65.1 -20.8Z" stroke="#2DAC8B" fill="none" stroke-width="20"></path></g><g transform="translate(24 309)"><path d="M35.8 -12.1C40.1 1.4 32.7 18.2 20.6 26.6C8.4 35.1 -8.7 35.2 -19.8 27.2C-31 19.1 -36.3 2.8 -32 -10.8C-27.7 -24.4 -13.8 -35.3 1 -35.6C15.8 -35.9 31.6 -25.6 35.8 -12.1Z" stroke="#2DAC8B" fill="none" stroke-width="20"></path></g><g transform="translate(525 384)"><path d="M58.8 -16.8C68.1 9.3 61.7 42.7 41.3 57.9C20.8 73 -13.8 69.8 -34.7 53.3C-55.6 36.8 -62.9 7 -54.9 -17.5C-46.8 -42.1 -23.4 -61.3 0.7 -61.6C24.8 -61.8 49.6 -43 58.8 -16.8Z" stroke="#2DAC8B" fill="none" stroke-width="20"></path></g><g transform="translate(952 255)"><path d="M60.6 -20.2C68.4 4 57.3 33.9 35.7 49.8C14 65.7 -18.3 67.6 -39.8 52.5C-61.2 37.4 -71.9 5.3 -63.5 -19.9C-55.1 -45.1 -27.5 -63.3 -0.5 -63.1C26.5 -63 52.9 -44.4 60.6 -20.2Z" stroke="#2DAC8B" fill="none" stroke-width="20"></path></g><g transform="translate(859 9)"><path d="M24.9 -8.4C28.3 2.3 24.3 15.1 14.8 22.5C5.2 29.9 -9.7 31.9 -18.9 25.4C-28 18.9 -31.3 3.8 -27.2 -7.9C-23.1 -19.6 -11.6 -28 -0.4 -27.9C10.8 -27.8 21.5 -19.1 24.9 -8.4Z" stroke="#2DAC8B" fill="none" stroke-width="20"></path></g><g transform="translate(1148 394)"><path d="M28.3 -8.5C32.6 4.3 29.5 20.3 19.4 27.9C9.3 35.5 -7.7 34.8 -19.6 26.4C-31.4 17.9 -38 1.7 -33.8 -10.7C-29.7 -23.2 -14.9 -31.9 -1.5 -31.4C11.9 -30.9 23.9 -21.3 28.3 -8.5Z" stroke="#2DAC8B" fill="none" stroke-width="20"></path></g></g></svg>