<svg id="visual" viewBox="0 0 1440 400" width="1440" height="400" xmlns="http://www.w3.org/2000/svg" xmlns:xlink="http://www.w3.org/1999/xlink" version="1.1"><rect x="0" y="0" width="1440" height="400" fill="#202731"></rect><defs><linearGradient id="grad1_0" x1="72.2%" y1="0%" x2="100%" y2="100%"><stop offset="-22%" stop-color="#202731" stop-opacity="1"></stop><stop offset="122%" stop-color="#202731" stop-opacity="1"></stop></linearGradient></defs><defs><linearGradient id="grad2_0" x1="0%" y1="0%" x2="27.8%" y2="100%"><stop offset="-22%" stop-color="#202731" stop-opacity="1"></stop><stop offset="122%" stop-color="#202731" stop-opacity="1"></stop></linearGradient></defs><g transform="translate(1440, 0)"><path d="M0 360C-39.9 359.7 -79.7 359.3 -111.2 342.4C-142.8 325.4 -165.9 291.8 -190.4 262.1C-215 232.4 -240.8 206.6 -240.3 174.6C-239.7 142.5 -212.7 104.3 -228.3 74.2C-243.8 44 -301.9 22 -360 0L0 0Z" fill="#2DAC8B"></path></g><g transform="translate(0, 400)"><path d="M0 -360C38.2 -358.2 76.4 -356.4 111.2 -342.4C146.1 -328.4 177.5 -302.1 194 -267C210.4 -231.8 211.8 -187.8 214.4 -155.8C217 -123.7 220.9 -103.7 245.4 -79.7C269.8 -55.8 314.9 -27.9 360 0L0 0Z" fill="#2DAC8B"></path></g></svg>