<svg id="visual" viewBox="0 0 1440 600" width="1440" height="600" xmlns="http://www.w3.org/2000/svg" xmlns:xlink="http://www.w3.org/1999/xlink" version="1.1"><rect x="0" y="0" width="1440" height="600" fill="#202731"></rect><path d="M0 229L34.3 227.2C68.7 225.3 137.3 221.7 205.8 223.8C274.3 226 342.7 234 411.2 236.3C479.7 238.7 548.3 235.3 617 235.2C685.7 235 754.3 238 823 232.2C891.7 226.3 960.3 211.7 1028.8 202.3C1097.3 193 1165.7 189 1234.2 182.3C1302.7 175.7 1371.3 166.3 1405.7 161.7L1440 157L1440 0L1405.7 0C1371.3 0 1302.7 0 1234.2 0C1165.7 0 1097.3 0 1028.8 0C960.3 0 891.7 0 823 0C754.3 0 685.7 0 617 0C548.3 0 479.7 0 411.2 0C342.7 0 274.3 0 205.8 0C137.3 0 68.7 0 34.3 0L0 0Z" fill="#8cd77e"></path><path d="M0 158L34.3 152.3C68.7 146.7 137.3 135.3 205.8 141.8C274.3 148.3 342.7 172.7 411.2 179.3C479.7 186 548.3 175 617 167.3C685.7 159.7 754.3 155.3 823 150C891.7 144.7 960.3 138.3 1028.8 135C1097.3 131.7 1165.7 131.3 1234.2 134.7C1302.7 138 1371.3 145 1405.7 148.5L1440 152L1440 0L1405.7 0C1371.3 0 1302.7 0 1234.2 0C1165.7 0 1097.3 0 1028.8 0C960.3 0 891.7 0 823 0C754.3 0 685.7 0 617 0C548.3 0 479.7 0 411.2 0C342.7 0 274.3 0 205.8 0C137.3 0 68.7 0 34.3 0L0 0Z" fill="#6cc984"></path><path d="M0 88L34.3 91.2C68.7 94.3 137.3 100.7 205.8 105.2C274.3 109.7 342.7 112.3 411.2 109.8C479.7 107.3 548.3 99.7 617 102.8C685.7 106 754.3 120 823 125.8C891.7 131.7 960.3 129.3 1028.8 121C1097.3 112.7 1165.7 98.3 1234.2 89.2C1302.7 80 1371.3 76 1405.7 74L1440 72L1440 0L1405.7 0C1371.3 0 1302.7 0 1234.2 0C1165.7 0 1097.3 0 1028.8 0C960.3 0 891.7 0 823 0C754.3 0 685.7 0 617 0C548.3 0 479.7 0 411.2 0C342.7 0 274.3 0 205.8 0C137.3 0 68.7 0 34.3 0L0 0Z" fill="#4dbb88"></path><path d="M0 44L34.3 48.5C68.7 53 137.3 62 205.8 61.8C274.3 61.7 342.7 52.3 411.2 49.7C479.7 47 548.3 51 617 56.7C685.7 62.3 754.3 69.7 823 70C891.7 70.3 960.3 63.7 1028.8 63C1097.3 62.3 1165.7 67.7 1234.2 69C1302.7 70.3 1371.3 67.7 1405.7 66.3L1440 65L1440 0L1405.7 0C1371.3 0 1302.7 0 1234.2 0C1165.7 0 1097.3 0 1028.8 0C960.3 0 891.7 0 823 0C754.3 0 685.7 0 617 0C548.3 0 479.7 0 411.2 0C342.7 0 274.3 0 205.8 0C137.3 0 68.7 0 34.3 0L0 0Z" fill="#2dac8b"></path></svg>